/* XPM */
static char *result[] = {
/* columns rows colors chars-per-pixel */
"32 32 7 1 ",
"  c #733E39",
". c #B86F50",
"X c #D77643",
"o c #E4A672",
"O c #E8B796",
"+ c #EAD4AA",
"@ c None",
/* pixels */
"@@@@@@@@@@@@@@@@@@@@@@@@@@@@@@@@",
"@@@@@@@@@@@@@@@@@@@@@@@@@@@@@@@@",
"@@@@@@@@@@@@@@@@@@@@@@@@@@@@@@@@",
"@@@@@@@@@@@@@@@@@@@@@@@@@@@@@@@@",
"@@@@@@@@@@@@        X@@@@@@@@@@@",
"@@@@@@@@@@@          X@@@@@@@@@@",
"@@@@@@@@@@@          X@@@@@@@@@@",
"@@@@@@@@@@@          .@@@@@@@@@@",
"@@@@@@@@@@.........X...@@@@@@@@@",
"@@@@@@@@@.........X.   .@@@@@@@@",
"@@@@@@@@.........X.     .@@@@@@@",
"@@@@@@@.........X.       .@@@@@@",
"@@@@@@.........X.         .@@@@@",
"@@@@@@         X...........@@@@@",
"@@@@@@         X...........@@@@@",
"@@@@@@oooooooooO+++++++++++@@@@@",
"@@@@@@oooooooooO+++++++++++@@@@@",
"@@@@@@oooooooooO+++++++++++@@@@@",
"@@@@@@o.......oO+ooooooooo+@@@@@",
"@@@@@@o.......oO+ooooooooo+@@@@@",
"@@@@@@o.......oO+ooooooooo+@@@@@",
"@@@@@@o.......oO+ooooooooo+@@@@@",
"@@@@@@o.......oO+ooooooooo+@@@@@",
"@@@@@@oooooooooO+++++++++++@@@@@",
"@@@@@@oooooooooO+++++++++++@@@@@",
"@@@@@@oooooooooO+++++++++++@@@@@",
"@@@@@@@@@@@@@@@@@@@@@@@@@@@@@@@@",
"@@@@@@@@@@@@@@@@@@@@@@@@@@@@@@@@",
"@@@@@@@@@@@@@@@@@@@@@@@@@@@@@@@@",
"@@@@@@@@@@@@@@@@@@@@@@@@@@@@@@@@",
"@@@@@@@@@@@@@@@@@@@@@@@@@@@@@@@@",
"@@@@@@@@@@@@@@@@@@@@@@@@@@@@@@@@"
};
